<?xml version="1.0" encoding="iso-8859-1"?>
<!-- Uploaded to: SVG Repo, www.svgrepo.com, Generator: SVG Repo Mixer Tools -->
<svg height="800px" width="800px" version="1.1" id="Layer_1" xmlns="http://www.w3.org/2000/svg" xmlns:xlink="http://www.w3.org/1999/xlink" 
	 viewBox="0 0 114.777 114.777" xml:space="preserve">
<g id="XMLID_155_">
	<path id="XMLID_158_" style="fill:#66B406;" d="M72.081,72.539h-8.123c-4.71,0-8.528-3.818-8.528-8.529v-8.122
		c0-4.71-3.818-8.529-8.528-8.529l0,0c-4.711,0-8.529,3.818-8.529,8.529v8.122c0,4.71-3.818,8.529-8.528,8.529h-8.122
		c-4.711,0-8.529,3.818-8.529,8.529l0,0c0,4.71,3.818,8.529,8.529,8.529h8.122c4.71,0,8.528,3.818,8.528,8.528v8.123
		c0,4.711,3.818,8.529,8.529,8.529l0,0c4.71,0,8.528-3.818,8.528-8.529v-8.123c0-4.71,3.818-8.528,8.528-8.528h8.123
		c4.71,0,8.528-3.819,8.528-8.529l0,0C80.609,76.357,76.791,72.539,72.081,72.539z"/>
	<path id="XMLID_156_" style="fill:#41A9C4;" d="M93.053,25.18h-8.122c-4.71,0-8.529-3.819-8.529-8.529V8.528
		c0-4.71-3.818-8.528-8.528-8.528l0,0c-4.71,0-8.528,3.818-8.528,8.528v8.122c0,4.71-3.818,8.529-8.528,8.529h-8.123
		c-4.71,0-8.528,3.818-8.528,8.528l0,0c0,4.71,3.818,8.529,8.528,8.529h8.123c4.71,0,8.528,3.818,8.528,8.529v8.122
		c0,4.71,3.818,8.529,8.528,8.529l0,0c4.71,0,8.528-3.819,8.528-8.529v-8.122c0-4.711,3.819-8.529,8.529-8.529h8.122
		c4.711,0,8.529-3.818,8.529-8.529l0,0C101.582,28.998,97.764,25.18,93.053,25.18z"/>
</g>
</svg>